<svg width="1920" height="1080" viewBox="0 0 1920 1080" fill="none" xmlns="http://www.w3.org/2000/svg">
<g clip-path="url(#clip0_2_5)">
<path fill-rule="evenodd" clip-rule="evenodd" d="M1920 0H0V1080H1920V0ZM914.505 567V665H959.025C969.665 665 979.045 662.993 987.165 658.98C995.285 654.873 1001.63 649.18 1006.2 641.9C1010.78 634.527 1013.06 625.893 1013.06 616C1013.06 606.013 1010.78 597.38 1006.2 590.1C1001.63 582.82 995.285 577.173 987.165 573.16C979.045 569.053 969.665 567 959.025 567H914.505ZM957.905 646.38H937.185V585.62H957.905C964.438 585.62 970.085 586.88 974.845 589.4C979.698 591.827 983.431 595.327 986.045 599.9C988.751 604.38 990.105 609.747 990.105 616C990.105 622.16 988.751 627.527 986.045 632.1C983.431 636.673 979.698 640.22 974.845 642.74C970.085 645.167 964.438 646.38 957.905 646.38ZM1052.71 624.12V646.8H1106.05V665H1030.17V567H1104.23V585.2H1052.71V606.48H1098.21V624.12H1052.71ZM1133.75 663.6C1140.94 665.653 1148.45 666.68 1156.29 666.68C1165.63 666.68 1173.33 665.28 1179.39 662.48C1185.55 659.68 1190.17 655.993 1193.25 651.42C1196.33 646.847 1197.87 641.807 1197.87 636.3C1197.87 631.167 1196.8 626.92 1194.65 623.56C1192.6 620.2 1189.89 617.493 1186.53 615.44C1183.17 613.387 1179.44 611.753 1175.33 610.54C1171.32 609.327 1167.26 608.253 1163.15 607.32C1159.14 606.387 1155.45 605.453 1152.09 604.52C1148.73 603.587 1146.03 602.373 1143.97 600.88C1141.92 599.293 1140.89 597.24 1140.89 594.72C1140.89 592.573 1141.5 590.707 1142.71 589.12C1143.93 587.44 1145.93 586.087 1148.73 585.06C1151.53 584.033 1155.13 583.52 1159.51 583.52C1163.9 583.52 1168.38 584.173 1172.95 585.48C1177.53 586.693 1182.1 588.607 1186.67 591.22L1193.67 574C1189.1 571.107 1183.83 568.96 1177.85 567.56C1171.88 566.067 1165.81 565.32 1159.65 565.32C1150.41 565.32 1142.71 566.72 1136.55 569.52C1130.49 572.227 1125.91 575.913 1122.83 580.58C1119.85 585.153 1118.35 590.24 1118.35 595.84C1118.35 601.067 1119.38 605.36 1121.43 608.72C1123.58 612.08 1126.33 614.787 1129.69 616.84C1133.05 618.893 1136.74 620.573 1140.75 621.88C1144.86 623.187 1148.92 624.307 1152.93 625.24C1157.04 626.08 1160.77 627.013 1164.13 628.04C1167.49 628.973 1170.2 630.233 1172.25 631.82C1174.31 633.313 1175.33 635.367 1175.33 637.98C1175.33 640.033 1174.68 641.853 1173.37 643.44C1172.07 645.027 1170.01 646.287 1167.21 647.22C1164.51 648.06 1160.91 648.48 1156.43 648.48C1150.55 648.48 1144.72 647.547 1138.93 645.68C1133.24 643.72 1128.29 641.247 1124.09 638.26L1116.39 655.34C1120.78 658.7 1126.57 661.453 1133.75 663.6ZM1236.05 567H1213.37V665H1236.05V567ZM1285.21 663.04C1291.74 665.467 1298.88 666.68 1306.63 666.68C1313.63 666.68 1320.63 665.607 1327.63 663.46C1334.72 661.313 1340.93 658.233 1346.25 654.22V614.46H1325.53V643.246C1324.01 644.047 1322.47 644.718 1320.91 645.26C1316.71 646.66 1312.37 647.36 1307.89 647.36C1303.22 647.36 1298.93 646.613 1295.01 645.12C1291.18 643.627 1287.82 641.48 1284.93 638.68C1282.13 635.787 1279.94 632.427 1278.35 628.6C1276.86 624.773 1276.11 620.573 1276.11 616C1276.11 611.333 1276.86 607.087 1278.35 603.26C1279.94 599.433 1282.13 596.12 1284.93 593.32C1287.82 590.52 1291.23 588.373 1295.15 586.88C1299.07 585.387 1303.41 584.64 1308.17 584.64C1313.12 584.64 1317.69 585.573 1321.89 587.44C1326.09 589.213 1329.96 591.967 1333.51 595.7L1348.07 582.26C1343.31 576.753 1337.43 572.553 1330.43 569.66C1323.52 566.767 1315.73 565.32 1307.05 565.32C1299.21 565.32 1292.02 566.58 1285.49 569.1C1278.96 571.527 1273.26 575.027 1268.41 579.6C1263.56 584.173 1259.78 589.54 1257.07 595.7C1254.46 601.86 1253.15 608.627 1253.15 616C1253.15 623.373 1254.46 630.14 1257.07 636.3C1259.78 642.46 1263.51 647.827 1268.27 652.4C1273.12 656.973 1278.77 660.52 1285.21 663.04ZM1386.08 567H1367.32V665H1389.72V605.518L1438.58 665H1457.2V567H1434.8V626.455L1386.08 567Z" fill="black"/>
<path d="M491.508 665V629.44L493.188 634.06L452.028 567H459.868L497.248 627.9H493.328L530.708 567H538.128L496.968 634.06L498.648 629.44V665H491.508ZM593.25 665.7C585.97 665.7 579.203 664.487 572.95 662.06C566.79 659.54 561.377 656.04 556.71 651.56C552.137 646.987 548.59 641.713 546.07 635.74C543.55 629.673 542.29 623.093 542.29 616C542.29 608.907 543.55 602.373 546.07 596.4C548.59 590.333 552.137 585.06 556.71 580.58C561.377 576.007 566.79 572.507 572.95 570.08C579.203 567.56 585.97 566.3 593.25 566.3C600.53 566.3 607.25 567.56 613.41 570.08C619.663 572.507 625.077 575.96 629.65 580.44C634.223 584.92 637.77 590.193 640.29 596.26C642.903 602.233 644.21 608.813 644.21 616C644.21 623.187 642.903 629.813 640.29 635.88C637.77 641.853 634.223 647.08 629.65 651.56C625.077 656.04 619.663 659.54 613.41 662.06C607.25 664.487 600.53 665.7 593.25 665.7ZM593.25 659.12C599.503 659.12 605.29 658.047 610.61 655.9C615.93 653.753 620.55 650.72 624.47 646.8C628.39 642.88 631.423 638.307 633.57 633.08C635.81 627.853 636.93 622.16 636.93 616C636.93 609.747 635.81 604.053 633.57 598.92C631.423 593.693 628.39 589.12 624.47 585.2C620.55 581.28 615.93 578.247 610.61 576.1C605.29 573.953 599.503 572.88 593.25 572.88C586.997 572.88 581.21 573.953 575.89 576.1C570.57 578.247 565.903 581.28 561.89 585.2C557.97 589.12 554.89 593.693 552.65 598.92C550.503 604.053 549.43 609.747 549.43 616C549.43 622.16 550.503 627.853 552.65 633.08C554.89 638.307 557.97 642.88 561.89 646.8C565.903 650.72 570.57 653.753 575.89 655.9C581.21 658.047 586.997 659.12 593.25 659.12ZM707.335 665.7C695.201 665.7 685.635 662.153 678.635 655.06C671.635 647.967 668.135 637.42 668.135 623.42V567H675.275V623.14C675.275 635.367 678.075 644.42 683.675 650.3C689.275 656.18 697.208 659.12 707.475 659.12C717.648 659.12 725.535 656.18 731.135 650.3C736.735 644.42 739.535 635.367 739.535 623.14V567H746.675V623.42C746.675 637.42 743.175 647.967 736.175 655.06C729.175 662.153 719.561 665.7 707.335 665.7ZM779.99 665V567H815.13C823.343 567 830.39 568.307 836.27 570.92C842.15 573.533 846.677 577.313 849.85 582.26C853.023 587.113 854.61 593.04 854.61 600.04C854.61 606.853 853.023 612.733 849.85 617.68C846.677 622.533 842.15 626.313 836.27 629.02C830.39 631.633 823.343 632.94 815.13 632.94H783.91L787.13 629.58V665H779.99ZM848.03 665L822.55 629.44H830.67L856.15 665H848.03ZM787.13 630L783.91 626.64H815.13C825.677 626.64 833.657 624.307 839.07 619.64C844.577 614.973 847.33 608.44 847.33 600.04C847.33 591.547 844.577 585.013 839.07 580.44C833.657 575.773 825.677 573.44 815.13 573.44H783.91L787.13 569.94V630Z" fill="white"/>
<path d="M766.894 456.48H814.074V474.12H766.894V456.48ZM768.574 496.8H821.914V515H746.034V417H820.094V435.2H768.574V496.8ZM839.96 515V417H884.48C895.12 417 904.5 419.053 912.62 423.16C920.74 427.173 927.087 432.82 931.66 440.1C936.233 447.38 938.52 456.013 938.52 466C938.52 475.893 936.233 484.527 931.66 491.9C927.087 499.18 920.74 504.873 912.62 508.98C904.5 512.993 895.12 515 884.48 515H839.96ZM862.64 496.38H883.36C889.893 496.38 895.54 495.167 900.3 492.74C905.153 490.22 908.887 486.673 911.5 482.1C914.207 477.527 915.56 472.16 915.56 466C915.56 459.747 914.207 454.38 911.5 449.9C908.887 445.327 905.153 441.827 900.3 439.4C895.54 436.88 889.893 435.62 883.36 435.62H862.64V496.38ZM1002.94 516.68C995.197 516.68 988.057 515.467 981.524 513.04C975.084 510.52 969.437 506.973 964.584 502.4C959.824 497.827 956.091 492.46 953.384 486.3C950.771 480.14 949.464 473.373 949.464 466C949.464 458.627 950.771 451.86 953.384 445.7C956.091 439.54 959.871 434.173 964.724 429.6C969.577 425.027 975.271 421.527 981.804 419.1C988.337 416.58 995.524 415.32 1003.36 415.32C1012.04 415.32 1019.84 416.767 1026.74 419.66C1033.74 422.553 1039.62 426.753 1044.38 432.26L1029.82 445.7C1026.28 441.967 1022.4 439.213 1018.2 437.44C1014 435.573 1009.43 434.64 1004.48 434.64C999.724 434.64 995.384 435.387 991.464 436.88C987.544 438.373 984.137 440.52 981.244 443.32C978.444 446.12 976.251 449.433 974.664 453.26C973.171 457.087 972.424 461.333 972.424 466C972.424 470.573 973.171 474.773 974.664 478.6C976.251 482.427 978.444 485.787 981.244 488.68C984.137 491.48 987.497 493.627 991.324 495.12C995.244 496.613 999.537 497.36 1004.2 497.36C1008.68 497.36 1013.02 496.66 1017.22 495.26C1021.52 493.767 1025.67 491.293 1029.68 487.84L1042.56 504.22C1037.24 508.233 1031.04 511.313 1023.94 513.46C1016.94 515.607 1009.94 516.68 1002.94 516.68ZM1021.84 501.28V464.46H1042.56V504.22L1021.84 501.28ZM1084.49 456.48H1131.67V474.12H1084.49V456.48ZM1086.17 496.8H1139.51V515H1063.63V417H1137.69V435.2H1086.17V496.8Z" fill="white"/>
</g>
<defs>
<clipPath id="clip0_2_5">
<rect width="1920" height="1080" fill="white"/>
</clipPath>
</defs>
</svg>
